<?xml version="1.0" encoding="utf-8"?>
<!-- Generator: Adobe Illustrator 22.0.1, SVG Export Plug-In . SVG Version: 6.00 Build 0)  -->
<svg version="1.1" id="Layer_1" xmlns="http://www.w3.org/2000/svg" xmlns:xlink="http://www.w3.org/1999/xlink" x="0px" y="0px"
	 viewBox="0 0 301.6 295.6" style="enable-background:new 0 0 301.6 295.6;" xml:space="preserve">
<style type="text/css">
	.st0{fill:#FFFFFF;}
	.st1{fill:#3EAE49;}
</style>
<rect width="301.6" height="295.6"/>
<g>
	<path class="st0" d="M169.2,152.9l50.1,64.2c27.1,35.8,40.7,35.8,40.7,35.8c-11.9,0-59.7,0-71.6,0c0,0,23.8,0,1.5-28.9l-38-47.7
		L169.2,152.9z"/>
	<path class="st0" d="M158.4,122.9l38.9-50.5c24-29.3-9.4-29.3-9.4-29.3c11.6,0,57.9,0,69.4,0c0,0-18.1,0.1-37.6,26.8l-50.4,67
		L158.4,122.9z"/>
	<polygon class="st1" points="45.3,42.4 86.4,42.4 162.8,145.8 82.9,253.2 41.7,253.2 122.6,145.8 	"/>
</g>
</svg>
